{"accessors" : [{"bufferView" : 0, "byteOffset" : 0, "componentType" : 5123, "count" : 432, "type" : "SCALAR", "max" : [144], "min" : [0]}, {"bufferView" : 1, "byteOffset" : 0, "componentType" : 5126, "count" : 145, "type" : "VEC3", "max" : [0.19263838231563568, 0.19265031814575195, -12.68103313446045], "min" : [-0.1926403045654297, -0.1926436424255371, -12.737995147705078], "name" : "POSITION"}, {"bufferView" : 1, "byteOffset" : 12, "componentType" : 5126, "count" : 145, "type" : "VEC3", "max" : [0.9981732368469238, 0.9981657266616821, 0], "min" : [-0.9981732368469238, -0.9981639385223389, -1.0000040531158447], "name" : "NORMAL"}, {"bufferView" : 1, "byteOffset" : 24, "componentType" : 5126, "count" : 145, "type" : "VEC2", "max" : [0.3172819912433624, 1.4469879865646362], "min" : [0.24048498272895813, 1.4141390323638916], "name" : "TEXCOORD_0"}, {"bufferView" : 0, "byteOffset" : 864, "componentType" : 5123, "count" : 97686, "type" : "SCALAR", "max" : [19145], "min" : [0]}, {"bufferView" : 2, "byteOffset" : 0, "componentType" : 5126, "count" : 19146, "type" : "VEC3", "max" : [2.557391881942749, 2.5574021339416504, 0], "min" : [-2.557391881942749, -2.5574021339416504, -0.6076061725616455], "name" : "POSITION"}, {"bufferView" : 2, "byteOffset" : 12, "componentType" : 5126, "count" : 19146, "type" : "VEC3", "max" : [0.9698278307914734, 0.9697480201721191, 1.0000044107437134], "min" : [-0.9698278307914734, -0.9697480201721191, 0.24131791293621063], "name" : "NORMAL"}, {"bufferView" : 2, "byteOffset" : 24, "componentType" : 5126, "count" : 19146, "type" : "VEC2", "max" : [1, 2], "min" : [-9.299999510403723E-05, 1], "name" : "TEXCOORD_0"}, {"bufferView" : 0, "byteOffset" : 196236, "componentType" : 5123, "count" : 41301, "type" : "SCALAR", "max" : [11555], "min" : [0]}, {"bufferView" : 3, "byteOffset" : 0, "componentType" : 5126, "count" : 11556, "type" : "VEC3", "max" : [2.507497787475586, 2.5060882568359375, -12.352381706237793], "min" : [-2.5074987411499023, -2.50608491897583, -12.931002616882324], "name" : "POSITION"}, {"bufferView" : 3, "byteOffset" : 12, "componentType" : 5126, "count" : 11556, "type" : "VEC3", "max" : [0.9996007680892944, 0.9990488886833191, 1.0000027418136597], "min" : [-0.999930739402771, -0.999049723148346, -1.0000044107437134], "name" : "NORMAL"}, {"bufferView" : 3, "byteOffset" : 24, "componentType" : 5126, "count" : 11556, "type" : "VEC2", "max" : [0.817887008190155, 1.8916330337524414], "min" : [0.09950999915599823, 1.1084270477294922], "name" : "TEXCOORD_0"}, {"bufferView" : 0, "byteOffset" : 278840, "componentType" : 5123, "count" : 20298, "type" : "SCALAR", "max" : [20297], "min" : [0]}, {"bufferView" : 4, "byteOffset" : 0, "componentType" : 5126, "count" : 20298, "type" : "VEC3", "max" : [1.6813468933105469, 0.5921344757080078, -12.630206108093262], "min" : [-0.07621288299560547, -1.1751699447631836, -12.729025840759277], "name" : "POSITION"}, {"bufferView" : 4, "byteOffset" : 12, "componentType" : 5126, "count" : 20298, "type" : "VEC3", "max" : [0.9998952150344849, 0.9830614328384399, 0.9996150732040405], "min" : [-1.0000025033950806, -0.9999419450759888, -1.0000044107437134], "name" : "NORMAL"}, {"bufferView" : 4, "byteOffset" : 24, "componentType" : 5126, "count" : 20298, "type" : "VEC2", "max" : [0.6377469897270203, 1.3363770246505737], "min" : [0.5227950215339661, 1.2202420234680176], "name" : "TEXCOORD_0"}, {"bufferView" : 0, "byteOffset" : 319436, "componentType" : 5123, "count" : 17145, "type" : "SCALAR", "max" : [3519], "min" : [0]}, {"bufferView" : 5, "byteOffset" : 0, "componentType" : 5126, "count" : 3520, "type" : "VEC3", "max" : [0.7473201751708984, 1.3442535400390625, -12.702693939208984], "min" : [-1.809366226196289, -0.7672700881958008, -12.81571102142334], "name" : "POSITION"}, {"bufferView" : 5, "byteOffset" : 12, "componentType" : 5126, "count" : 3520, "type" : "VEC3", "max" : [0.97975093126297, 0.9932955503463745, 0.9935806393623352], "min" : [-0.9697393774986267, -0.9477406740188599, -1.0000044107437134], "name" : "NORMAL"}, {"bufferView" : 5, "byteOffset" : 24, "componentType" : 5126, "count" : 3520, "type" : "VEC2", "max" : [0.602042019367218, 1.5669760704040527], "min" : [0.39870497584342957, 1.43306303024292], "name" : "TEXCOORD_0"}, {"bufferView" : 0, "byteOffset" : 353728, "componentType" : 5123, "count" : 870, "type" : "SCALAR", "max" : [333], "min" : [0]}, {"bufferView" : 6, "byteOffset" : 0, "componentType" : 5126, "count" : 334, "type" : "VEC3", "max" : [-0.7401084899902344, 0.8393774032592773, -12.675895690917969], "min" : [-1.3590774536132812, 0.04676532745361328, -12.745379447937012], "name" : "POSITION"}, {"bufferView" : 6, "byteOffset" : 12, "componentType" : 5126, "count" : 334, "type" : "VEC3", "max" : [1.000002145767212, 0.9993491172790527, 0], "min" : [-0.9983848333358765, -0.9985721707344055, 0], "name" : "NORMAL"}, {"bufferView" : 6, "byteOffset" : 24, "componentType" : 5126, "count" : 334, "type" : "VEC2", "max" : [0.5701239705085754, 1.5325729846954346], "min" : [0.5347240567207336, 1.4711859226226807], "name" : "TEXCOORD_0"}, {"bufferView" : 0, "byteOffset" : 355468, "componentType" : 5123, "count" : 6372, "type" : "SCALAR", "max" : [6371], "min" : [0]}, {"bufferView" : 7, "byteOffset" : 0, "componentType" : 5126, "count" : 6372, "type" : "VEC3", "max" : [2.5702459812164307, 2.5695109367370605, -0.47454699873924255], "min" : [-2.5702478885650635, -2.5695130825042725, -12.722559928894043], "name" : "POSITION"}, {"bufferView" : 7, "byteOffset" : 12, "componentType" : 5126, "count" : 6372, "type" : "VEC3", "max" : [1.000003695487976, 0.9997382760047913, 0.20585578680038452], "min" : [-1.0000019073486328, -0.9997118711471558, -0.38570261001586914], "name" : "NORMAL"}, {"bufferView" : 7, "byteOffset" : 24, "componentType" : 5126, "count" : 6372, "type" : "VEC2", "max" : [1.0001189708709717, 1.9814800024032593], "min" : [0.00011700000322889537, 1.0022989511489868], "name" : "TEXCOORD_0"}], "asset" : {"generator" : "Aspose.3D 24.6.0", "version" : "2.0"}, "buffers" : [{"uri" : "data:application/octet-stream;base64,", "byteLength" : 2332116}], "bufferViews" : [{"buffer" : 0, "byteOffset" : 0, "byteLength" : 368212, "target" : 34963}, {"buffer" : 0, "byteOffset" : 368216, "byteLength" : 4640, "byteStride" : 32, "target" : 34962}, {"buffer" : 0, "byteOffset" : 372860, "byteLength" : 612672, "byteStride" : 32, "target" : 34962}, {"buffer" : 0, "byteOffset" : 985536, "byteLength" : 369792, "byteStride" : 32, "target" : 34962}, {"buffer" : 0, "byteOffset" : 1355332, "byteLength" : 649536, "byteStride" : 32, "target" : 34962}, {"buffer" : 0, "byteOffset" : 2004872, "byteLength" : 112640, "byteStride" : 32, "target" : 34962}, {"buffer" : 0, "byteOffset" : 2117516, "byteLength" : 10688, "byteStride" : 32, "target" : 34962}, {"buffer" : 0, "byteOffset" : 2128208, "byteLength" : 203904, "byteStride" : 32, "target" : 34962}], "cameras" : [{"perspective" : {"aspectRatio" : 1.7865612648221343, "yfov" : 0.4363323129985824, "zfar" : 2000, "znear" : 0.1}, "type" : "perspective", "name" : ""}], "images" : [{"uri" : "data:image/png;base64,"}], "materials" : [{"name" : "m_aluminium", "pbrMetallicRoughness" : {"baseColorFactor" : [0.5775804404214573, 0.5775804404214573, 0.5775804404214573, 1], "metallicFactor" : 1, "roughnessFactor" : 0.26}, "emissiveFactor" : [0, 0, 0], "alphaMode" : "OPAQUE", "doubleSided" : true}, {"name" : "m_aluminium", "pbrMetallicRoughness" : {"baseColorFactor" : [0.5775804404214573, 0.5775804404214573, 0.5775804404214573, 1], "metallicFactor" : 1, "roughnessFactor" : 0.26}, "emissiveFactor" : [0, 0, 0], "alphaMode" : "OPAQUE", "doubleSided" : true}, {"name" : "m_aluminium", "pbrMetallicRoughness" : {"baseColorFactor" : [0.5775804404214573, 0.5775804404214573, 0.5775804404214573, 1], "metallicFactor" : 1, "roughnessFactor" : 0.26}, "emissiveFactor" : [0, 0, 0], "alphaMode" : "OPAQUE", "doubleSided" : true}, {"name" : "m_aluminium", "pbrMetallicRoughness" : {"baseColorFactor" : [0.5775804404214573, 0.5775804404214573, 0.5775804404214573, 1], "metallicFactor" : 1, "roughnessFactor" : 0.26}, "emissiveFactor" : [0, 0, 0], "alphaMode" : "OPAQUE", "doubleSided" : true}, {"name" : "m_aluminium", "pbrMetallicRoughness" : {"baseColorFactor" : [0.5775804404214573, 0.5775804404214573, 0.5775804404214573, 1], "metallicFactor" : 1, "roughnessFactor" : 0.26}, "emissiveFactor" : [0, 0, 0], "alphaMode" : "OPAQUE", "doubleSided" : true}, {"name" : "m_aluminium", "pbrMetallicRoughness" : {"baseColorFactor" : [0.5775804404214573, 0.5775804404214573, 0.5775804404214573, 1], "metallicFactor" : 1, "roughnessFactor" : 0.26}, "emissiveFactor" : [0, 0, 0], "alphaMode" : "OPAQUE", "doubleSided" : true}, {"name" : "m_label", "pbrMetallicRoughness" : {"baseColorFactor" : [1, 1, 1, 1], "metallicFactor" : 1, "roughnessFactor" : 0.35, "metallicRoughnessTexture" : {"index" : 0, "texCoord" : 0}}, "emissiveFactor" : [0, 0, 0], "alphaMode" : "OPAQUE", "doubleSided" : false}], "meshes" : [{"primitives" : [{"attributes" : {"POSITION" : 1, "NORMAL" : 2, "TEXCOORD_0" : 3}, "indices" : 0, "material" : 0, "mode" : 4}]}, {"primitives" : [{"attributes" : {"POSITION" : 5, "NORMAL" : 6, "TEXCOORD_0" : 7}, "indices" : 4, "material" : 1, "mode" : 4}]}, {"primitives" : [{"attributes" : {"POSITION" : 9, "NORMAL" : 10, "TEXCOORD_0" : 11}, "indices" : 8, "material" : 2, "mode" : 4}]}, {"primitives" : [{"attributes" : {"POSITION" : 13, "NORMAL" : 14, "TEXCOORD_0" : 15}, "indices" : 12, "material" : 3, "mode" : 4}]}, {"primitives" : [{"attributes" : {"POSITION" : 17, "NORMAL" : 18, "TEXCOORD_0" : 19}, "indices" : 16, "material" : 4, "mode" : 4}]}, {"primitives" : [{"attributes" : {"POSITION" : 21, "NORMAL" : 22, "TEXCOORD_0" : 23}, "indices" : 20, "material" : 5, "mode" : 4}]}, {"primitives" : [{"attributes" : {"POSITION" : 25, "NORMAL" : 26, "TEXCOORD_0" : 27}, "indices" : 24, "material" : 6, "mode" : 4}]}], "nodes" : [{"mesh" : 0, "name" : "bolt"}, {"mesh" : 1, "name" : "bottom"}, {"mesh" : 2, "name" : "can_top"}, {"mesh" : 3, "name" : "hole"}, {"mesh" : 4, "name" : "tab"}, {"mesh" : 5, "name" : "tab_bevel"}, {"mesh" : 6, "name" : "can_label"}, {"children" : [0, 1, 2, 3, 4, 5, 6], "matrix" : [1, 0, 0, 0, 0, 2.220446049250313E-16, 1, 0, 0, -1, 2.220446049250313E-16, 0, 4.76837158203125E-07, -6.465501308441162, -3.576278673200761E-07, 1], "name" : "Can_250ml"}, {"children" : [7], "name" : "can.glb"}, {"camera" : 0, "matrix" : [1, 0, 0, 0, 0, 1, 0, 0, 0, 0, 1, 0, 0, 0, 35, 1], "name" : "CanCamera"}], "samplers" : [{"magFilter" : 9729, "minFilter" : 9729, "wrapS" : 33071, "wrapT" : 33071}], "scene" : 0, "scenes" : [{"nodes" : [8, 9]}], "textures" : [{"sampler" : 0, "source" : 0, "name" : ""}]}